<?xml version="1.0" encoding="UTF-8"?>
<svg version="1.1" xmlns="http://www.w3.org/2000/svg" width="500" height="500">
<path d="M0 0 C1.72051801 1.52265094 3.42885901 3.05766319 5.13232422 4.59936523 C6.09428711 5.46875732 6.09428711 5.46875732 7.07568359 6.35571289 C14.13963925 12.77265414 21.14008817 19.14849278 27.13232422 26.59936523 C28.01727067 27.6609553 28.90273931 28.72211017 29.78857422 29.78295898 C50.62485551 54.99735819 66.07526542 83.52482238 76.13232422 114.59936523 C76.37080078 115.32623535 76.60927734 116.05310547 76.85498047 116.80200195 C84.49592188 140.34155933 87.56377517 164.61452913 87.50732422 189.28686523 C87.50644806 190.22690399 87.5055719 191.16694275 87.50466919 192.13546753 C87.31894145 252.85944161 65.33074689 311.04495145 25.13232422 356.59936523 C24.47345215 357.3529834 24.47345215 357.3529834 23.80126953 358.12182617 C-17.80158018 405.52255264 -79.08340149 435.707116 -141.86767578 440.59936523 C-148.61396647 440.96207644 -155.36326578 440.98962421 -162.11767578 440.97436523 C-163.03054352 440.97382141 -163.94341125 440.97327759 -164.88394165 440.97271729 C-189.22599019 440.90646888 -212.55239642 437.77424294 -235.86767578 430.59936523 C-236.80772461 430.31077637 -237.74777344 430.0221875 -238.71630859 429.72485352 C-273.15092516 418.92240933 -305.0457537 400.80965275 -331.31298828 376.00170898 C-333.42648175 374.01424953 -335.57656875 372.14095531 -337.80517578 370.28686523 C-366.67304482 345.05730201 -387.81264262 308.57920626 -399.86767578 272.59936523 C-400.17930664 271.67414063 -400.4909375 270.74891602 -400.81201172 269.7956543 C-409.39755214 243.91600584 -413.30242395 218.00426891 -413.24267578 190.78686523 C-413.24213196 189.84870972 -413.24158813 188.9105542 -413.24102783 187.94396973 C-413.17675019 163.70667095 -409.82346324 140.85156902 -402.86767578 117.59936523 C-402.63322754 116.80385254 -402.3987793 116.00833984 -402.15722656 115.1887207 C-391.95674444 81.10312943 -373.36946944 49.08774728 -349.15673828 23.07592773 C-347.22184362 20.98254341 -345.38190672 18.84854316 -343.55517578 16.66186523 C-334.57153463 6.3768555 -323.76511253 -2.2446022 -312.86767578 -10.40063477 C-312.23410156 -10.88000488 -311.60052734 -11.359375 -310.94775391 -11.85327148 C-287.56092399 -29.42816126 -260.84955935 -42.0754904 -232.86767578 -50.40063477 C-232.07490234 -50.63766113 -231.28212891 -50.8746875 -230.46533203 -51.11889648 C-151.47951307 -74.13452302 -61.85116001 -53.86137779 0 0 Z M-293.86767578 21.59936523 C-294.85767578 22.58936523 -295.84767578 23.57936523 -296.86767578 24.59936523 C-267.66267578 25.09436523 -267.66267578 25.09436523 -237.86767578 25.59936523 C-235.16580078 32.73561523 -232.46392578 39.87186523 -229.68017578 47.22436523 C-219.23946992 74.74784303 -208.56493665 102.17417295 -197.86767578 129.59936523 C-176.74767578 129.59936523 -155.62767578 129.59936523 -133.86767578 129.59936523 C-130.78343985 122.72509045 -130.78343985 122.72509045 -127.93920898 115.77783203 C-127.61339844 114.93797256 -127.28758789 114.0981131 -126.9519043 113.23280334 C-126.6108667 112.34701096 -126.2698291 111.46121857 -125.91845703 110.54858398 C-125.5480127 109.59193344 -125.17756836 108.6352829 -124.79589844 107.64964294 C-123.58836735 104.52959701 -122.38409849 101.40830512 -121.18017578 98.28686523 C-120.3413657 96.11542501 -119.50241532 93.94403899 -118.66333008 91.77270508 C-117.3689323 88.42293391 -116.07476931 85.07307357 -114.78157043 81.72283936 C-112.22088674 75.09108397 -109.64931721 68.46370953 -107.06575012 61.84083557 C-105.47827307 57.77101061 -103.89450602 53.69974707 -102.31112671 49.62832642 C-101.55877208 47.69649313 -100.8047301 45.76531611 -100.04898071 43.83480835 C-99.00086806 41.15653086 -97.95895606 38.47592041 -96.91845703 35.79467773 C-96.60690674 35.00322861 -96.29535645 34.21177948 -95.97436523 33.39634705 C-94.78935886 30.32787765 -93.86767578 27.91895905 -93.86767578 24.59936523 C-72.74767578 24.59936523 -51.62767578 24.59936523 -29.86767578 24.59936523 C-33.28758575 20.32447777 -36.15391451 17.72966043 -40.61767578 14.84936523 C-41.59861206 14.20692871 -41.59861206 14.20692871 -42.59936523 13.55151367 C-49.25341948 9.2510216 -56.10293739 5.32299875 -63.07617188 1.56616211 C-64.62434154 0.73068216 -66.16297289 -0.12242791 -67.69970703 -0.97875977 C-137.65838658 -38.26274126 -232.66444591 -28.78511188 -293.86767578 21.59936523 Z M-10.86767578 41.59936523 C-10.20380447 57.57949169 -8.72187821 73.49333898 -7.28369141 89.41796875 C-6.93279806 93.30439087 -6.58804886 97.19133155 -6.24490356 101.07844448 C-5.97810217 104.09234199 -5.70791455 107.10592856 -5.43670654 110.11943245 C-5.30802716 111.55426297 -5.18045185 112.98919297 -5.05401611 114.42422295 C-4.87819952 116.41447383 -4.69727913 118.40427188 -4.51611328 120.39404297 C-4.41476074 121.52333725 -4.3134082 122.65263153 -4.20898438 123.81614685 C-3.95131153 126.67913066 -3.95131153 126.67913066 -2.86767578 129.59936523 C11.98232422 129.59936523 26.83232422 129.59936523 42.13232422 129.59936523 C38.41463825 118.44630734 34.95920664 108.24662398 29.81982422 97.84936523 C29.25295898 96.68977295 28.68609375 95.53018066 28.10205078 94.33544922 C23.96596574 85.99825004 19.57815604 78.15064876 14.13232422 70.59936523 C13.06111328 69.0950293 13.06111328 69.0950293 11.96826172 67.56030273 C7.96347761 62.08379584 3.72959645 56.80567489 -0.61767578 51.59936523 C-1.28935791 50.7890686 -1.28935791 50.7890686 -1.97460938 49.96240234 C-4.692896 46.75708516 -7.56211581 44.17756399 -10.86767578 41.59936523 Z M-321.86767578 47.59936523 C-336.49918799 63.36468466 -347.58970783 81.5906351 -356.99267578 100.84936523 C-357.38849854 101.64560303 -357.78432129 102.44184082 -358.19213867 103.26220703 C-362.31534466 111.89567466 -364.76659173 120.29611309 -367.86767578 129.59936523 C-354.66767578 129.59936523 -341.46767578 129.59936523 -327.86767578 129.59936523 C-327.10070867 121.57318337 -326.33448904 113.54697995 -325.57466888 105.52012634 C-325.220461 101.7802498 -324.86507592 98.04049466 -324.5065918 94.30102539 C-322.25492431 70.98241966 -322.25492431 70.98241966 -320.86767578 47.59936523 C-321.19767578 47.59936523 -321.52767578 47.59936523 -321.86767578 47.59936523 Z M-375.86767578 174.59936523 C-377.20725851 191.10358839 -377.20725851 191.10358839 -375.86767578 205.59936523 C-362.33767578 205.59936523 -348.80767578 205.59936523 -334.86767578 205.59936523 C-334.37267578 201.04124023 -333.87767578 196.48311523 -333.36767578 191.78686523 C-333.21105469 190.35238037 -333.05443359 188.91789551 -332.89306641 187.43994141 C-332.77125 186.31048096 -332.64943359 185.18102051 -332.52392578 184.01733398 C-332.39824219 182.85999756 -332.27255859 181.70266113 -332.14306641 180.51025391 C-331.82058253 177.58890238 -331.82058253 177.58890238 -331.86767578 174.59936523 C-346.38767578 174.59936523 -360.90767578 174.59936523 -375.86767578 174.59936523 Z M-257.86767578 174.59936523 C-258.86210031 178.02339107 -259.15156184 181.34495493 -259.40283203 184.89624023 C-259.48984375 186.10151367 -259.57685547 187.30678711 -259.66650391 188.54858398 C-259.75351562 189.8028418 -259.84052734 191.05709961 -259.93017578 192.34936523 C-260.02105469 193.6190918 -260.11193359 194.88881836 -260.20556641 196.19702148 C-260.42941579 199.33091292 -260.64895753 202.46511151 -260.86767578 205.59936523 C-253.93767578 205.59936523 -247.00767578 205.59936523 -239.86767578 205.59936523 C-240.6130486 201.12712833 -241.40880186 197.71234469 -242.93408203 193.54467773 C-243.33691406 192.43608398 -243.73974609 191.32749023 -244.15478516 190.18530273 C-244.57566406 189.04319336 -244.99654297 187.90108398 -245.43017578 186.72436523 C-245.85492188 185.55905273 -246.27966797 184.39374023 -246.71728516 183.19311523 C-247.76278468 180.32680193 -248.81304967 177.46233037 -249.86767578 174.59936523 C-252.50767578 174.59936523 -255.14767578 174.59936523 -257.86767578 174.59936523 Z M-179.86767578 174.59936523 C-177.53811309 182.48310763 -177.53811309 182.48310763 -174.82470703 190.16967773 C-174.29780273 191.5425293 -174.29780273 191.5425293 -173.76025391 192.94311523 C-173.40382812 193.86092773 -173.04740234 194.77874023 -172.68017578 195.72436523 C-172.31214844 196.68084961 -171.94412109 197.63733398 -171.56494141 198.62280273 C-170.66912133 200.94960813 -169.76999805 203.27507544 -168.86767578 205.59936523 C-166.88767578 205.59936523 -164.90767578 205.59936523 -162.86767578 205.59936523 C-159.81098149 198.41542933 -156.89170531 191.18512916 -154.05517578 183.91186523 C-153.7412085 183.10958496 -153.42724121 182.30730469 -153.10375977 181.48071289 C-151.55668543 178.1305078 -151.55668543 178.1305078 -150.86767578 174.59936523 C-160.43767578 174.59936523 -170.00767578 174.59936523 -179.86767578 174.59936523 Z M-80.86767578 174.59936523 C-83.74487611 181.55417471 -86.27696696 188.57270885 -88.61767578 195.72436523 C-89.69017578 198.98311523 -90.76267578 202.24186523 -91.86767578 205.59936523 C-84.93767578 205.59936523 -78.00767578 205.59936523 -70.86767578 205.59936523 C-71.55523096 190.0771333 -71.55523096 190.0771333 -72.86767578 174.59936523 C-75.50767578 174.59936523 -78.14767578 174.59936523 -80.86767578 174.59936523 Z M1.13232422 174.59936523 C0.44766154 188.41432948 0.44766154 188.41432948 4.13232422 205.59936523 C5.57522208 205.69232339 7.02262206 205.71683036 8.46850586 205.71289062 C9.38938492 205.71281509 10.31026398 205.71273956 11.25904846 205.71266174 C12.76059731 205.70491982 12.76059731 205.70491982 14.29248047 205.69702148 C15.31208359 205.69560654 16.33168671 205.69419159 17.38218689 205.69273376 C20.65309529 205.6871162 23.92393635 205.67456073 27.19482422 205.66186523 C29.40641178 205.6568525 31.6180004 205.6522892 33.82958984 205.64819336 C39.26385779 205.63714107 44.69808619 205.62038586 50.13232422 205.59936523 C50.33335805 203.24572303 50.51799803 200.89236466 50.69482422 198.53686523 C50.79923828 197.22588867 50.90365234 195.91491211 51.01123047 194.56420898 C51.17365517 187.90479605 50.57543352 181.24600473 50.13232422 174.59936523 C33.96232422 174.59936523 17.79232422 174.59936523 1.13232422 174.59936523 Z M-366.86767578 251.59936523 C-365.48717355 258.50187641 -364.16740747 264.11911076 -361.43017578 270.41186523 C-361.09034668 271.2057666 -360.75051758 271.99966797 -360.40039062 272.81762695 C-357.51442912 279.41392724 -354.31166398 285.83655832 -350.99267578 292.22436523 C-350.51644775 293.1432251 -350.04021973 294.06208496 -349.54956055 295.00878906 C-349.1002417 295.85594482 -348.65092285 296.70310059 -348.18798828 297.57592773 C-347.58881592 298.70635498 -347.58881592 298.70635498 -346.97753906 299.85961914 C-345.97486625 301.7597411 -345.97486625 301.7597411 -343.86767578 302.59936523 C-342.99495278 299.98119622 -342.63179587 297.99663883 -342.38696289 295.28320312 C-342.30695541 294.4154274 -342.22694794 293.54765167 -342.14451599 292.65357971 C-342.06218216 291.7191655 -341.97984833 290.78475128 -341.89501953 289.82202148 C-341.8076503 288.85912704 -341.72028107 287.8962326 -341.63026428 286.90415955 C-341.44621886 284.8675751 -341.26392664 282.83083156 -341.08325195 280.79394531 C-340.80654313 277.67726621 -340.52409217 274.56114819 -340.24072266 271.44506836 C-340.06264829 269.46658331 -339.88490295 267.48806861 -339.70751953 265.50952148 C-339.62316147 264.5771315 -339.53880341 263.64474152 -339.45188904 262.68409729 C-339.37503372 261.8131694 -339.29817841 260.94224152 -339.21899414 260.04492188 C-339.11692909 258.89933556 -339.11692909 258.89933556 -339.01280212 257.73060608 C-338.8739163 255.69100992 -338.86767578 253.64368463 -338.86767578 251.59936523 C-348.10767578 251.59936523 -357.34767578 251.59936523 -366.86767578 251.59936523 Z M-263.86767578 251.59936523 C-265.46416247 254.79233862 -265.35453185 258.3060435 -265.6237793 261.82177734 C-265.72641083 263.09781326 -265.72641083 263.09781326 -265.83111572 264.39962769 C-266.05717305 267.22500271 -266.27706187 270.05081906 -266.49658203 272.87670898 C-266.65185257 274.84291972 -266.80736849 276.80911108 -266.96311951 278.77528381 C-267.28942809 282.9069458 -267.61268313 287.03883274 -267.93383789 291.17089844 C-268.34388286 296.44342538 -268.76147686 301.71532117 -269.18142796 306.98706722 C-269.50455125 311.05426429 -269.82354461 315.12177749 -270.14134026 319.189394 C-270.29356253 321.13137335 -270.44705068 323.07325393 -270.60186958 325.015028 C-270.81908716 327.74717799 -271.03070346 330.47970947 -271.2409668 333.21240234 C-271.33679298 334.39669075 -271.33679298 334.39669075 -271.43455505 335.60490417 C-271.89131803 341.65563247 -271.86767578 347.48013057 -271.86767578 353.59936523 C-281.10767578 353.59936523 -290.34767578 353.59936523 -299.86767578 353.59936523 C-264.58875834 388.87828268 -210.55387023 404.04202063 -161.86767578 404.59936523 C-114.00756709 404.39268433 -60.37775806 388.10944751 -25.86767578 353.59936523 C-36.75767578 353.59936523 -47.64767578 353.59936523 -58.86767578 353.59936523 C-59.00431641 350.99747314 -59.14095703 348.39558105 -59.28173828 345.71484375 C-59.79073292 336.38106275 -60.4882769 327.06838108 -61.24267578 317.75170898 C-61.37352375 316.11748953 -61.50421695 314.48325767 -61.63476562 312.84901428 C-61.90569054 309.46335849 -62.17808445 306.07782542 -62.45166016 302.69238281 C-62.80040634 298.37588045 -63.14593572 294.05912785 -63.490448 289.74228573 C-63.758764 286.38344238 -64.02848224 283.0247128 -64.29864502 279.66601753 C-64.42657521 278.07419287 -64.55414695 276.48233935 -64.68133545 274.89045525 C-64.85926027 272.66692836 -65.0390095 270.44355602 -65.21923828 268.22021484 C-65.32059082 266.96212509 -65.42194336 265.70403534 -65.52636719 264.40782166 C-65.90954917 260.13212537 -66.39361178 255.8659412 -66.86767578 251.59936523 C-80.39767578 251.59936523 -93.92767578 251.59936523 -107.86767578 251.59936523 C-112.93641387 265.10066153 -112.93641387 265.10066153 -117.75048828 278.68530273 C-118.08729111 279.65952682 -118.42409393 280.63375092 -118.77110291 281.63749695 C-119.48246781 283.69554451 -120.19296446 285.75389237 -120.90261841 287.81253052 C-122.76269798 293.20790174 -124.6296396 298.60089687 -126.49658203 303.99389648 C-126.86716232 305.0647197 -127.23774261 306.13554291 -127.61955261 307.23881531 C-132.63409193 321.71656853 -137.75140791 336.15724201 -142.86767578 350.59936523 C-158.04767578 350.92936523 -173.22767578 351.25936523 -188.86767578 351.59936523 C-189.19767578 349.61936523 -189.52767578 347.63936523 -189.86767578 345.59936523 C-190.29924066 344.13392019 -190.77167862 342.67977263 -191.2878418 341.24194336 C-191.57703491 340.42826294 -191.86622803 339.61458252 -192.16418457 338.77624512 C-192.48012573 337.90318726 -192.79606689 337.03012939 -193.12158203 336.13061523 C-193.45452271 335.1972937 -193.78746338 334.26397217 -194.13049316 333.30236816 C-194.85048929 331.28536715 -195.57270653 329.26915791 -196.29690552 327.25366211 C-198.22648942 321.88293929 -200.13985788 316.50643848 -202.05517578 311.13061523 C-202.64770897 309.46953735 -202.64770897 309.46953735 -203.25221252 307.77490234 C-207.54120353 295.73829659 -211.7414342 283.67115322 -215.93017578 271.59936523 C-216.28282501 270.58366455 -216.63547424 269.56796387 -216.99880981 268.52148438 C-218.95699536 262.88143237 -220.91273365 257.24054413 -222.86767578 251.59936523 C-236.39767578 251.59936523 -249.92767578 251.59936523 -263.86767578 251.59936523 Z M8.13232422 251.59936523 C8.09257408 258.6294573 8.09257408 258.6294573 8.48364258 265.56494141 C8.56049789 266.42580856 8.63735321 267.28667572 8.71653748 268.17362976 C8.84307457 269.51938835 8.84307457 269.51938835 8.97216797 270.89233398 C9.05858047 271.84199539 9.14499298 272.7916568 9.23402405 273.77009583 C9.41620552 275.76276138 9.60035042 277.75524832 9.78637695 279.74755859 C10.06995157 282.78823082 10.34673776 285.82946522 10.62255859 288.87084961 C10.80119631 290.81554774 10.98021947 292.7602105 11.15966797 294.70483398 C11.2420018 295.60807907 11.32433563 296.51132416 11.40916443 297.44194031 C11.82487635 301.86579643 12.32566589 306.22529517 13.13232422 310.59936523 C17.09942387 307.12247927 19.33580083 303.10831147 21.81982422 298.53686523 C22.25190186 297.74755615 22.68397949 296.95824707 23.12915039 296.14501953 C35.55345675 274.95332034 35.55345675 274.95332034 41.13232422 251.59936523 C30.24232422 251.59936523 19.35232422 251.59936523 8.13232422 251.59936523 Z " fill="#1D8E4A" transform="translate(412.86767578125,59.400634765625)"/>
<path d="M0 0 C0.94875 0.350625 1.8975 0.70125 2.875 1.0625 C3.80218689 4.14386961 4.01768368 5.67921247 2.87890625 8.73828125 C2.40324219 9.60839844 1.92757813 10.47851562 1.4375 11.375 C0.96441406 12.25800781 0.49132812 13.14101562 0.00390625 14.05078125 C-0.36863281 14.71464844 -0.74117188 15.37851563 -1.125 16.0625 C-1.785 16.0625 -2.445 16.0625 -3.125 16.0625 C-2.37965483 11.29229089 -0.90995892 7.82239046 0.875 3.0625 C-12.985 2.5675 -12.985 2.5675 -27.125 2.0625 C-26.3309375 4.04894531 -25.536875 6.03539062 -24.71875 8.08203125 C-23.95303224 10.00773342 -23.18907881 11.9341266 -22.42529297 13.8605957 C-21.89360679 15.19889426 -21.36008993 16.53646703 -20.82470703 17.87329102 C-20.05539 19.79515629 -19.29269846 21.71953716 -18.53125 23.64453125 C-18.07041016 24.80186768 -17.60957031 25.9592041 -17.13476562 27.15161133 C-16.125 30.0625 -16.125 30.0625 -16.125 33.0625 C-14.701875 33.0315625 -14.701875 33.0315625 -13.25 33 C-10.125 33.0625 -10.125 33.0625 -8.125 34.0625 C-8.455 34.7225 -8.785 35.3825 -9.125 36.0625 C-11.45833333 36.0625 -13.79166667 36.0625 -16.125 36.0625 C-16.52332031 35.09828125 -16.92164063 34.1340625 -17.33203125 33.140625 C-17.86689434 31.86446043 -18.40206696 30.58842555 -18.9375 29.3125 C-19.19853516 28.67828125 -19.45957031 28.0440625 -19.72851562 27.390625 C-21.20058852 23.90126703 -22.85255042 21.06585441 -25.125 18.0625 C-25.49900786 15.73534 -25.83264733 13.40132138 -26.125 11.0625 C-26.475625 10.381875 -26.82625 9.70125 -27.1875 9 C-28.4839057 6.32076155 -28.25826354 3.99429788 -28.125 1.0625 C-21.50196964 -0.01881108 -15.01076233 0.01859126 -8.3203125 0.125 C-0.118114 -0.0354342 -0.118114 -0.0354342 0 0 Z " fill="#298351" transform="translate(260.125,231.9375)"/>
<path d="M0 0 C1.10147621 -0.00287018 1.10147621 -0.00287018 2.22520447 -0.00579834 C3.76903631 -0.0071525 5.31287983 -0.00351009 6.85668945 0.00488281 C9.21136138 0.01560914 11.56527317 0.00495382 13.91992188 -0.0078125 C15.42578292 -0.00649107 16.9316435 -0.00392901 18.4375 0 C19.13657974 -0.00404846 19.83565948 -0.00809692 20.55592346 -0.01226807 C24.57686845 0.02608412 27.49818262 0.64750673 31.15234375 2.265625 C32.81305239 2.58292222 34.48573236 2.84233002 36.1640625 3.046875 C37.54754883 3.22669922 37.54754883 3.22669922 38.95898438 3.41015625 C40.89110082 3.64855977 42.8233956 3.88552214 44.75585938 4.12109375 C46.13354492 4.30091797 46.13354492 4.30091797 47.5390625 4.484375 C48.79529419 4.6380957 48.79529419 4.6380957 50.0769043 4.79492188 C52.15234375 5.265625 52.15234375 5.265625 54.15234375 7.265625 C53.10175781 7.13285156 52.05117188 7.00007813 50.96875 6.86328125 C49.55078552 6.68486188 48.13281653 6.5064784 46.71484375 6.328125 C45.68327148 6.19760742 45.68327148 6.19760742 44.63085938 6.06445312 C42.47192016 5.79333053 40.31235653 5.52805422 38.15234375 5.265625 C37.43264404 5.17732422 36.71294434 5.08902344 35.97143555 4.99804688 C19.67900287 3.0827725 3.49112108 3.12683045 -12.84765625 4.265625 C-14.37494159 4.36419061 -15.90228425 4.46187252 -17.4296875 4.55859375 C-20.90330082 4.78121556 -24.37569702 5.01837942 -27.84765625 5.265625 C-27.84765625 4.605625 -27.84765625 3.945625 -27.84765625 3.265625 C-26.90664062 3.21664062 -25.965625 3.16765625 -24.99609375 3.1171875 C-23.12824219 3.00503906 -23.12824219 3.00503906 -21.22265625 2.890625 C-19.99289063 2.82101563 -18.763125 2.75140625 -17.49609375 2.6796875 C-13.93867491 2.42248309 -13.93867491 2.42248309 -11.11010742 1.25634766 C-7.34831605 0.1139882 -3.89022698 -0.02259423 0 0 Z " fill="#2C8052" transform="translate(241.84765625,33.734375)"/>
<path d="M0 0 C0.33 0 0.66 0 1 0 C1.19421438 2.95803435 1.38066186 5.91620163 1.5625 8.875 C1.64661133 10.13763672 1.64661133 10.13763672 1.73242188 11.42578125 C1.78076172 12.23144531 1.82910156 13.03710938 1.87890625 13.8671875 C1.9260376 14.61081543 1.97316895 15.35444336 2.02172852 16.12060547 C2 18 2 18 1 20 C-2.62424136 21.20808045 -6.02955982 21.24985808 -9.80859375 21.3515625 C-10.57172379 21.37471527 -11.33485382 21.39786804 -12.12110901 21.42172241 C-13.73407527 21.46930473 -15.34711206 21.51454566 -16.96020508 21.55761719 C-19.42492562 21.62465797 -21.88914546 21.70247681 -24.35351562 21.78125 C-25.92185641 21.82617447 -27.49021548 21.87046629 -29.05859375 21.9140625 C-29.79411972 21.93796051 -30.52964569 21.96185852 -31.28746033 21.98648071 C-34.68504907 22.06945324 -37.7553725 22.09049828 -41 21 C-41 20.34 -41 19.68 -41 19 C-27.8 19 -14.6 19 -1 19 C-0.67 12.73 -0.34 6.46 0 0 Z " fill="#2F8251" transform="translate(86,170)"/>
<path d="M0 0 C0.12375 0.639375 0.2475 1.27875 0.375 1.9375 C0.58125 2.618125 0.7875 3.29875 1 4 C1.66 4.33 2.32 4.66 3 5 C2.34 6.98 1.68 8.96 1 11 C0.67 11 0.34 11 0 11 C0 9.02 0 7.04 0 5 C-13.53 5 -27.06 5 -41 5 C-41.33 5.66 -41.66 6.32 -42 7 C-41.67 5.35 -41.34 3.7 -41 2 C-21.2 2.495 -21.2 2.495 -1 3 C-0.67 2.01 -0.34 1.02 0 0 Z " fill="#2D7B4C" transform="translate(346,306)"/>
<path d="M0 0 C0.96084503 0.00007553 1.92169006 0.00015106 2.91165161 0.00022888 C3.95127045 0.00539017 4.99088928 0.01055145 6.06201172 0.01586914 C7.12459198 0.01728409 8.18717224 0.01869904 9.2819519 0.02015686 C12.68522931 0.02576705 16.0884416 0.0383213 19.49169922 0.05102539 C21.79508369 0.05603908 24.09846918 0.06060221 26.40185547 0.06469727 C32.05682571 0.0757398 37.71175781 0.09248788 43.36669922 0.11352539 C43.36669922 0.44352539 43.36669922 0.77352539 43.36669922 1.11352539 C27.85669922 1.11352539 12.34669922 1.11352539 -3.63330078 1.11352539 C-2.97330078 7.38352539 -2.31330078 13.65352539 -1.63330078 20.11352539 C-1.49267578 27.63696289 -1.49267578 27.63696289 -1.63330078 31.11352539 C-1.96330078 31.11352539 -2.29330078 31.11352539 -2.63330078 31.11352539 C-2.94617826 28.46773622 -3.25859979 25.8218944 -3.57080078 23.17602539 C-3.66288818 22.39783447 -3.75497559 21.61964355 -3.84985352 20.81787109 C-4.32200805 16.81438536 -4.77729893 12.81054316 -5.19580078 8.80102539 C-5.51659506 6.09718789 -5.93721263 3.71954138 -6.63330078 1.11352539 C-4.21555497 -0.09534751 -2.69999014 -0.00706804 0 0 Z " fill="#28804D" transform="translate(417.63330078125,232.886474609375)"/>
<path d="M0 0 C14.85 0 29.7 0 45 0 C44.67 0.99 44.34 1.98 44 3 C38.21593031 3.07410115 32.43213629 3.12857885 26.64770508 3.16479492 C24.67955717 3.17989082 22.71144294 3.20036948 20.7434082 3.22631836 C17.91609388 3.26266649 15.0892239 3.27971814 12.26171875 3.29296875 C11.38037766 3.30845261 10.49903656 3.32393646 9.59098816 3.33988953 C8.77036392 3.34011612 7.94973969 3.34034271 7.10424805 3.34057617 C6.38254929 3.34723801 5.66085052 3.35389984 4.9172821 3.36076355 C3 3 3 3 0 0 Z " fill="#2F8250" transform="translate(409,189)"/>
<path d="M0 0 C1.6760341 3.14328886 2.23036383 5.16762962 2.125 8.75 C2.10695313 9.54921875 2.08890625 10.3484375 2.0703125 11.171875 C2.03550781 12.07679687 2.03550781 12.07679687 2 13 C1.34 13 0.68 13 0 13 C0.00523682 13.65073486 0.01047363 14.30146973 0.01586914 14.97192383 C0.03664938 17.91877274 0.0496635 20.86560623 0.0625 23.8125 C0.07087891 24.83666016 0.07925781 25.86082031 0.08789062 26.91601562 C0.09111328 27.89892578 0.09433594 28.88183594 0.09765625 29.89453125 C0.10289307 30.80050049 0.10812988 31.70646973 0.11352539 32.63989258 C0 35 0 35 -1 38 C-1.22589806 41.18408693 -1.39304559 44.36153341 -1.51757812 47.55078125 C-1.70771749 51.18854201 -1.93076619 52.89614929 -4 56 C-4.11202179 48.63517879 -3.81652513 41.41296973 -3.125 34.08203125 C-3.03621582 33.09877365 -2.94743164 32.11551605 -2.85595703 31.10246277 C-2.57524805 28.0053676 -2.28774976 24.9089481 -2 21.8125 C-1.80683951 19.69470265 -1.61412717 17.57686437 -1.421875 15.45898438 C-0.95308877 10.30550263 -0.4782186 5.15261467 0 0 Z " fill="#2C7E50" transform="translate(91,114)"/>
<path d="M0 0 C0.33 0 0.66 0 1 0 C1.65454666 7.21490367 2.3066787 14.43002133 2.95575714 21.64541912 C3.25724807 24.99606124 3.55955987 28.34662502 3.86376953 31.69702148 C4.21335489 35.55173516 4.56008131 39.40669693 4.90625 43.26171875 C5.07030334 45.06040657 5.07030334 45.06040657 5.2376709 46.89543152 C5.33777466 48.01621597 5.43787842 49.13700043 5.54101562 50.29174805 C5.62984009 51.27547897 5.71866455 52.2592099 5.81018066 53.27275085 C5.99021616 55.85942959 6.03469123 58.40814096 6 61 C5.34 60.67 4.68 60.34 4 60 C3.54329183 57.58008102 3.23645052 55.25815074 3 52.8125 C2.91878906 52.04309082 2.83757812 51.27368164 2.75390625 50.48095703 C1.82523959 41.16393021 1.29817667 31.80825334 0.78515625 22.46020508 C0.40291028 16.0236356 -0.31658961 10.21223128 -2 4 C-1.125 1.5 -1.125 1.5 0 0 Z " fill="#297F50" transform="translate(403,119)"/>
<path d="M0 0 C0.33 0.66 0.66 1.32 1 2 C1.99 1.67 2.98 1.34 4 1 C4 1.66 4 2.32 4 3 C11.92 3 19.84 3 28 3 C28 3.66 28 4.32 28 5 C19.09 5 10.18 5 1 5 C1.33 7.64 1.66 10.28 2 13 C0.68 12.01 -0.64 11.02 -2 10 C-1.34 6.7 -0.68 3.4 0 0 Z " fill="#2A7E4B" transform="translate(45,306)"/>
<path d="M0 0 C2.61914209 1.30957104 2.63207229 2.25279952 3.55078125 4.98828125 C3.8348584 5.83011963 4.11893555 6.67195801 4.41162109 7.53930664 C4.70891113 8.45446045 5.00620117 9.36961426 5.3125 10.3125 C5.62010254 11.25150146 5.92770508 12.19050293 6.24462891 13.15795898 C10.51480017 26.43812499 14.68599839 39.95556437 15 54 C12.61913523 51.61913523 12.74258325 50.93445561 12.5625 47.6875 C12.22024441 43.75789883 11.39453189 41.22741255 9 38 C9.66 38 10.32 38 11 38 C10.566875 36.7625 10.13375 35.525 9.6875 34.25 C8.48330981 30.65423208 7.49978795 27.06410575 6.625 23.375 C5.27256427 17.76275333 3.5202446 12.34715843 1.62548828 6.89990234 C0 2.19283705 0 2.19283705 0 0 Z " fill="#2D8252" transform="translate(482,158)"/>
<path d="M0 0 C0.70602859 0.02644089 1.41205719 0.05288177 2.13948059 0.0801239 C4.39203133 0.16781926 6.64295699 0.27698542 8.89453125 0.38671875 C10.42246801 0.44998501 11.95046346 0.51185083 13.47851562 0.57226562 C17.22222856 0.72334788 20.96462735 0.89369052 24.70703125 1.07421875 C24.70703125 1.73421875 24.70703125 2.39421875 24.70703125 3.07421875 C14.14703125 3.07421875 3.58703125 3.07421875 -7.29296875 3.07421875 C-7.29296875 5.05421875 -7.29296875 7.03421875 -7.29296875 9.07421875 C-9.29296875 6.07421875 -9.29296875 6.07421875 -10.29296875 3.07421875 C-7.5980126 -0.78517017 -4.26889324 -0.23298919 0 0 Z " fill="#2C7B4D" transform="translate(428.29296875,307.92578125)"/>
<path d="M0 0 C0.66 0 1.32 0 2 0 C2.50512244 1.60256108 3.00391627 3.20711792 3.5 4.8125 C3.7784375 5.70582031 4.056875 6.59914062 4.34375 7.51953125 C5 10 5 10 5 13 C5.99 13.33 6.98 13.66 8 14 C8.04241723 16.33294775 8.04092937 18.66702567 8 21 C5.69990227 23.30009773 0.15209334 22.18537365 -2.9375 22.1875 C-3.87013672 22.19974609 -4.80277344 22.21199219 -5.76367188 22.22460938 C-6.65505859 22.22654297 -7.54644531 22.22847656 -8.46484375 22.23046875 C-9.285896 22.23457764 -10.10694824 22.23868652 -10.95288086 22.24291992 C-13 22 -13 22 -15 20 C-8.07 20 -1.14 20 6 20 C4.03060866 14.53851361 4.03060866 14.53851361 2.05078125 9.08081055 C1.68533203 8.05661011 1.68533203 8.05661011 1.3125 7.01171875 C1.06113281 6.31522217 0.80976563 5.61872559 0.55078125 4.90112305 C0 3 0 3 0 0 Z " fill="#2C7E4E" transform="translate(167,245)"/>
<path d="M0 0 C-3.03745714 2.02497142 -4.82102424 2.54432563 -8.33984375 3.25390625 C-9.40396484 3.46853516 -10.46808594 3.68316406 -11.56445312 3.90429688 C-13.23411133 4.23010742 -13.23411133 4.23010742 -14.9375 4.5625 C-16.01580078 4.78357422 -17.09410156 5.00464844 -18.20507812 5.23242188 C-25.45733676 6.67070684 -32.62147763 7.54669207 -40 8 C-40 7.01 -40 6.02 -40 5 C-39.39671875 5.01160156 -38.7934375 5.02320313 -38.171875 5.03515625 C-37.37265625 5.04417969 -36.5734375 5.05320312 -35.75 5.0625 C-34.96109375 5.07410156 -34.1721875 5.08570313 -33.359375 5.09765625 C-31.0432041 5.08287725 -31.0432041 5.08287725 -29.03125 4.5 C-26.55120789 3.8895281 -24.30055357 3.90394008 -21.75 3.9375 C-20.85796875 3.94652344 -19.9659375 3.95554687 -19.046875 3.96484375 C-18.37140625 3.97644531 -17.6959375 3.98804688 -17 4 C-16.67 3.01 -16.34 2.02 -16 1 C-14.27327966 0.63409254 -12.54346345 0.28277805 -10.8125 -0.0625 C-9.36810547 -0.35833984 -9.36810547 -0.35833984 -7.89453125 -0.66015625 C-4.96389138 -1.00423947 -2.83692932 -0.74164697 0 0 Z " fill="#288652" transform="translate(316,491)"/>
<path d="M0 0 C0.49628906 0.27714844 0.99257812 0.55429687 1.50390625 0.83984375 C6.05399203 3.26598057 9.80069043 4.50006639 15 5 C16.33917261 5.30903983 17.67653254 5.62942911 19 6 C19 6.66 19 7.32 19 8 C24.94 7.505 24.94 7.505 31 7 C31 7.99 31 8.98 31 10 C31.66 10.66 32.32 11.32 33 12 C25.06798437 11.46554333 17.98670297 9.35642004 10.4375 6.9375 C9.23802734 6.56044922 8.03855469 6.18339844 6.80273438 5.79492188 C3.86607597 4.87063497 0.9320287 3.93884892 -2 3 C-1.34 2.67 -0.68 2.34 0 2 C0 1.34 0 0.68 0 0 Z " fill="#278751" transform="translate(167,483)"/>
<path d="M0 0 C0 0.33 0 0.66 0 1 C-0.89203125 1.04898438 -1.7840625 1.09796875 -2.703125 1.1484375 C-3.87359375 1.22320312 -5.0440625 1.29796875 -6.25 1.375 C-7.99023438 1.47941406 -7.99023438 1.47941406 -9.765625 1.5859375 C-12.74721587 1.96763875 -14.40294636 2.62999464 -17 4 C-17.66 3.67 -18.32 3.34 -19 3 C-19.33 3.66 -19.66 4.32 -20 5 C-20 4.34 -20 3.68 -20 3 C-21.32 3 -22.64 3 -24 3 C-24.33 3.66 -24.66 4.32 -25 5 C-26.95803507 5.05389087 -28.91648909 5.09274217 -30.875 5.125 C-31.96554688 5.14820313 -33.05609375 5.17140625 -34.1796875 5.1953125 C-37 5 -37 5 -39 3 C-25.9311434 1.06234618 -13.22805619 -0.51837085 0 0 Z " fill="#2F9458" transform="translate(245,0)"/>
<path d="M0 0 C0.66 0.99 1.32 1.98 2 3 C1.125 6.6875 1.125 6.6875 0 10 C-1.32 10.33 -2.64 10.66 -4 11 C-4.11859375 11.72058594 -4.2371875 12.44117188 -4.359375 13.18359375 C-5.70411925 19.09554864 -8.37961261 24.48763844 -12.8125 28.625 C-13.8953125 29.305625 -13.8953125 29.305625 -15 30 C-13.55457075 26.20346115 -11.84336208 22.64172163 -9.9609375 19.04296875 C-9.09082031 17.37524414 -9.09082031 17.37524414 -8.203125 15.67382812 C-7.59984375 14.52333984 -6.9965625 13.37285156 -6.375 12.1875 C-5.45847656 10.43276367 -5.45847656 10.43276367 -4.5234375 8.64257812 C-3.01775034 5.7605988 -1.50986725 2.87979095 0 0 Z " fill="#2C8150" transform="translate(445,336)"/>
<path d="M0 0 C5.42874078 3.39554319 10.80298023 6.81930891 16 10.5625 C21.08939351 14.17907867 26.46428103 17.12689871 32 20 C27.82412255 21.39195915 25.86525224 19.82323219 22 18 C22 17.34 22 16.68 22 16 C21.29875 15.731875 20.5975 15.46375 19.875 15.1875 C16.8350176 13.9318551 13.9272226 12.49764877 11 11 C11 10.34 11 9.68 11 9 C10.01 9 9.02 9 8 9 C6.97803008 8.02246356 5.98020375 7.0194119 5 6 C3.948125 5.5359375 3.948125 5.5359375 2.875 5.0625 C1 4 1 4 0.3828125 1.93359375 C0.25648437 1.29550781 0.13015625 0.65742188 0 0 Z " fill="#2A7F51" transform="translate(118,418)"/>
<path d="M0 0 C0.33 0 0.66 0 1 0 C1.042721 1.66611905 1.04063832 3.33382885 1 5 C0 6 0 6 -1.86659241 6.12025452 C-2.68155685 6.11803391 -3.4965213 6.11581329 -4.33618164 6.11352539 C-5.71750023 6.11341209 -5.71750023 6.11341209 -7.12672424 6.11329651 C-8.12775681 6.10813522 -9.12878937 6.10297394 -10.16015625 6.09765625 C-11.17975937 6.0962413 -12.19936249 6.09482635 -13.24986267 6.09336853 C-16.52077107 6.08775097 -19.79161213 6.0751955 -23.0625 6.0625 C-25.27408756 6.05748726 -27.48567618 6.05292396 -29.69726562 6.04882812 C-35.13153357 6.03777584 -40.56576197 6.02102063 -46 6 C-45.67 5.01 -45.34 4.02 -45 3 C-45 3.66 -45 4.32 -45 5 C-44.00959717 4.83411377 -43.01919434 4.66822754 -41.9987793 4.49731445 C-37.99647005 3.92777944 -34.05315692 3.94019135 -30.01953125 4.04296875 C-28.51108051 4.065334 -27.00261609 4.08679187 -25.49414062 4.10742188 C-23.14358023 4.14463066 -20.79372805 4.18797012 -18.44360352 4.24682617 C-16.15630768 4.30129126 -13.86981285 4.33038118 -11.58203125 4.35546875 C-10.53037529 4.39114204 -10.53037529 4.39114204 -9.45747375 4.42753601 C-5.94089728 4.44640601 -4.32756461 4.27470058 -1.58862305 1.9777832 C-1.06437744 1.32511475 -0.54013184 0.67244629 0 0 Z " fill="#2D8F58" transform="translate(270,405)"/>
<path d="M0 0 C0.66 0.33 1.32 0.66 2 1 C0.26151899 4.25628797 -1.49276058 7.50380199 -3.25 10.75 C-3.74113281 11.67039062 -4.23226563 12.59078125 -4.73828125 13.5390625 C-5.22167969 14.42851562 -5.70507812 15.31796875 -6.203125 16.234375 C-6.86296387 17.45979004 -6.86296387 17.45979004 -7.53613281 18.70996094 C-9.10508047 21.16438539 -10.87493673 23.01819943 -13 25 C-13.625 23.1875 -13.625 23.1875 -14 21 C-13.01 19.515 -13.01 19.515 -12 18 C-11.01 18 -10.02 18 -9 18 C-9 17.34 -9 16.68 -9 16 C-9.66 15.67 -10.32 15.34 -11 15 C-9.71034824 13.62437146 -8.37310707 12.29233607 -7 11 C-6.34 11 -5.68 11 -5 11 C-4.67 9.35 -4.34 7.7 -4 6 C-3.34 6 -2.68 6 -2 6 C-1.855625 5.195625 -1.71125 4.39125 -1.5625 3.5625 C-1 1 -1 1 0 0 Z " fill="#298351" transform="translate(472,362)"/>
<path d="M0 0 C1.21433736 3.64301207 0.6894238 4.38344423 -0.80078125 7.81640625 C-1.20103516 8.74517578 -1.60128906 9.67394531 -2.01367188 10.63085938 C-2.44228516 11.59830078 -2.87089844 12.56574219 -3.3125 13.5625 C-3.72951172 14.53380859 -4.14652344 15.50511719 -4.57617188 16.50585938 C-7.71913485 23.71913485 -7.71913485 23.71913485 -10 26 C-10.33 25.01 -10.66 24.02 -11 23 C-10.34 23 -9.68 23 -9 23 C-9.20625 21.9275 -9.4125 20.855 -9.625 19.75 C-10.12389381 14.76106195 -10.12389381 14.76106195 -8 12 C-7.01 11.67 -6.02 11.34 -5 11 C-3.79056185 8.70972258 -3.79056185 8.70972258 -2.875 6 C-1.06726457 1.06726457 -1.06726457 1.06726457 0 0 Z " fill="#28844F" transform="translate(484,335)"/>
<path d="M0 0 C0 3.69192371 -0.72197568 4.12784353 -3.2109375 6.72265625 C-3.87867188 7.42583984 -4.54640625 8.12902344 -5.234375 8.85351562 C-5.94078125 9.58248047 -6.6471875 10.31144531 -7.375 11.0625 C-8.42300781 12.16174805 -8.42300781 12.16174805 -9.4921875 13.28320312 C-11.97162306 15.87945824 -14.46145932 18.46145932 -17 21 C-17.99 20.67 -18.98 20.34 -20 20 C-16.64026633 15.88981036 -13.39717763 12.05359558 -9 9 C-8.34 9 -7.68 9 -7 9 C-6.9175 8.05125 -6.835 7.1025 -6.75 6.125 C-6 3 -6 3 -4.0625 1.6875 C-3.381875 1.460625 -2.70125 1.23375 -2 1 C-1.34 0.67 -0.68 0.34 0 0 Z " fill="#2C8151" transform="translate(441,410)"/>
<path d="M0 0 C0.66 0 1.32 0 2 0 C1.34 2.64 0.68 5.28 0 8 C6.6 8.33 13.2 8.66 20 9 C20 9.99 20 10.98 20 12 C16.89548451 11.86105852 13.79149165 11.712657 10.6875 11.5625 C9.80642578 11.52318359 8.92535156 11.48386719 8.01757812 11.44335938 C7.17001953 11.40146484 6.32246094 11.35957031 5.44921875 11.31640625 C4.66893311 11.27974854 3.88864746 11.24309082 3.0847168 11.20532227 C1 11 1 11 -2 10 C-1.54177532 6.53058454 -1.10868317 3.32604951 0 0 Z " fill="#2B7D4F" transform="translate(322,256)"/>
<path d="M0 0 C3.11069384 2.07379589 3.57099388 2.70415838 4.97265625 5.95703125 C5.31490234 6.74013672 5.65714844 7.52324219 6.00976562 8.33007812 C6.35716797 9.14927734 6.70457031 9.96847656 7.0625 10.8125 C7.41376953 11.62009766 7.76503906 12.42769531 8.12695312 13.25976562 C13.09665185 24.7304691 13.09665185 24.7304691 14 30 C11 29 11 29 9.97265625 27.05395508 C9.52212891 25.79941528 9.52212891 25.79941528 9.0625 24.51953125 C8.72476562 23.60236328 8.38703125 22.68519531 8.0390625 21.74023438 C7.69617188 20.77408203 7.35328125 19.80792969 7 18.8125 C6.31539852 16.92212487 5.62796631 15.03277213 4.9375 13.14453125 C4.61136719 12.2520166 4.28523438 11.35950195 3.94921875 10.43994141 C2.81628691 7.52777041 1.41954056 4.78141228 0 2 C0 1.34 0 0.68 0 0 Z " fill="#308052" transform="translate(442,156)"/>
<path d="M0 0 C0.66 0.33 1.32 0.66 2 1 C0.68 3.64 -0.64 6.28 -2 9 C-2.66 8.67 -3.32 8.34 -4 8 C-7.24106474 9.20063734 -8.99524531 10.89194372 -11.125 13.5625 C-13.80555556 16.90277778 -13.80555556 16.90277778 -16 18 C-16.33 18.99 -16.66 19.98 -17 21 C-17.99 21.33 -18.98 21.66 -20 22 C-18.64897029 17.94691087 -16.93812111 15.58139216 -13.875 12.625 C-13.07835938 11.85414062 -12.28171875 11.08328125 -11.4609375 10.2890625 C-8.04266872 7.10952995 -4.54400883 4.03772186 -1 1 C-0.67 0.67 -0.34 0.34 0 0 Z " fill="#2B8250" transform="translate(86,60)"/>
<path d="M0 0 C0 0.66 0 1.32 0 2 C-4.03815931 3.83832395 -7.79616112 4.51184739 -12.1875 5.0625 C-16.74688988 5.51849699 -16.74688988 5.51849699 -21 7 C-23.04498425 6.91219597 -25.08744948 6.75758462 -27.125 6.5625 C-28.22070312 6.46066406 -29.31640625 6.35882813 -30.4453125 6.25390625 C-31.28835938 6.17011719 -32.13140625 6.08632813 -33 6 C-33 5.67 -33 5.34 -33 5 C-32.410979 4.91959473 -31.82195801 4.83918945 -31.21508789 4.75634766 C-28.49701515 4.38307525 -25.77977012 4.00406921 -23.0625 3.625 C-22.13630859 3.49867188 -21.21011719 3.37234375 -20.25585938 3.2421875 C-15.05918444 2.51282961 -9.9721621 1.62457491 -4.87280273 0.38037109 C-3 0 -3 0 0 0 Z " fill="#298250" transform="translate(304,457)"/>
<path d="M0 0 C4.39948388 3.76948619 6.95531606 8.60980014 9.8125 13.5625 C10.32748047 14.42552734 10.84246094 15.28855469 11.37304688 16.17773438 C11.85451172 17.00724609 12.33597656 17.83675781 12.83203125 18.69140625 C13.27264893 19.44623291 13.7132666 20.20105957 14.16723633 20.97875977 C15 23 15 23 14 26 C12.68 24.68 11.36 23.36 10 22 C10.33 21.34 10.66 20.68 11 20 C10.34 19.67 9.68 19.34 9 19 C8.06238879 17.38901347 7.19608599 15.73588285 6.375 14.0625 C5.92898438 13.16660156 5.48296875 12.27070312 5.0234375 11.34765625 C4 9 4 9 4 7 C3.01 6.67 2.02 6.34 1 6 C0.67 4.02 0.34 2.04 0 0 Z " fill="#2A8352" transform="translate(457,110)"/>
<path d="M0 0 C0.66 0.33 1.32 0.66 2 1 C1.38125 1.226875 0.7625 1.45375 0.125 1.6875 C-2.21499426 2.83106583 -2.21499426 2.83106583 -2.875 5.375 C-4.40780862 8.95155346 -6.71143209 10.06975362 -10 12 C-10.33 11.67 -10.66 11.34 -11 11 C-11.66 11.66 -12.32 12.32 -13 13 C-15.625 13.125 -15.625 13.125 -18 13 C-15.50694917 10.24673174 -12.71166074 8.44846309 -9.5625 6.5 C-6.26198161 4.45233145 -3.0704095 2.38083763 0 0 Z " fill="#27844D" transform="translate(374,423)"/>
<path d="M0 0 C0.99 0.33 1.98 0.66 3 1 C3.66 1.33 4.32 1.66 5 2 C5.33 2.99 5.66 3.98 6 5 C7.7325 5.7425 7.7325 5.7425 9.5 6.5 C10.655 6.995 11.81 7.49 13 8 C13.33 8.99 13.66 9.98 14 11 C9.15984684 9.23465356 4.7164873 6.80463275 0.1875 4.375 C-0.60076172 3.95476563 -1.38902344 3.53453125 -2.20117188 3.1015625 C-4.13535326 2.0699991 -6.06823983 1.03608828 -8 0 C-8 -0.33 -8 -0.66 -8 -1 C-3.375 -2.25 -3.375 -2.25 0 0 Z " fill="#2A8350" transform="translate(352,59)"/>
<path d="M0 0 C0.33 0 0.66 0 1 0 C1 3.63 1 7.26 1 11 C2.98 11.66 4.96 12.32 7 13 C6.34 14.32 5.68 15.64 5 17 C4.67 17 4.34 17 4 17 C3.67 18.98 3.34 20.96 3 23 C2.34 23 1.68 23 1 23 C0.15199233 15.307359 -0.12152487 7.73708326 0 0 Z " fill="#298750" transform="translate(352,383)"/>
<path d="M0 0 C0.66 0.33 1.32 0.66 2 1 C1.27554688 1.845625 0.55109375 2.69125 -0.1953125 3.5625 C-5.32798528 9.57678273 -10.35379244 15.59576796 -15 22 C-16.37245106 19.25509788 -15.93580311 17.87939419 -15 15 C-14.38769531 14.70351562 -13.77539062 14.40703125 -13.14453125 14.1015625 C-10.53053511 12.7588541 -9.5241845 11.28401819 -7.875 8.875 C-6.3671875 6.6796875 -6.3671875 6.6796875 -5 5 C-4.34 5 -3.68 5 -3 5 C-2.690625 4.360625 -2.38125 3.72125 -2.0625 3.0625 C-1 1 -1 1 0 0 Z " fill="#2C8050" transform="translate(90,106)"/>
<path d="M0 0 C0 1.98 0 3.96 0 6 C-0.33 6 -0.66 6 -1 6 C-1 4.35 -1 2.7 -1 1 C-3.64 1.33 -6.28 1.66 -9 2 C-11.31 8.6 -13.62 15.2 -16 22 C-17.12674134 17.49303466 -16.69025126 17.03782247 -15 13 C-14.87625 11.865625 -14.7525 10.73125 -14.625 9.5625 C-13.88746505 5.35855078 -12.86424825 3.16574807 -10 0 C-6.06696827 -1.03500835 -3.86351156 -1.28783719 0 0 Z " fill="#2E8051" transform="translate(341,233)"/>
<path d="M0 0 C3.74087154 1.41989285 7.23068194 3.09766592 10.75 5 C11.71421875 5.515625 12.6784375 6.03125 13.671875 6.5625 C16 8 16 8 17 10 C11.06 9.01 11.06 9.01 5 8 C5.33 7.34 5.66 6.68 6 6 C3.9254644 4.7763932 3.9254644 4.7763932 1 5 C0.67 3.35 0.34 1.7 0 0 Z " fill="#268550" transform="translate(367,29)"/>
<path d="M0 0 C0.66 0.33 1.32 0.66 2 1 C-6.15638298 11.31542553 -6.15638298 11.31542553 -12.375 12.8125 C-13.674375 12.9053125 -13.674375 12.9053125 -15 13 C-10.43369266 8.12927217 -5.25023461 4.10843602 0 0 Z " fill="#298451" transform="translate(104,46)"/>
<path d="M0 0 C-3.098534 1.20258256 -6.20458066 2.38440783 -9.3125 3.5625 C-10.19357422 3.90474609 -11.07464844 4.24699219 -11.98242188 4.59960938 C-12.82998047 4.91865234 -13.67753906 5.23769531 -14.55078125 5.56640625 C-15.33106689 5.86490479 -16.11135254 6.16340332 -16.9152832 6.47094727 C-19 7 -19 7 -22 6 C-20.68 5.67 -19.36 5.34 -18 5 C-18.33 3.35 -18.66 1.7 -19 0 C-18.34 0 -17.68 0 -17 0 C-16.67 0.66 -16.34 1.32 -16 2 C-15.09636719 1.77183594 -14.19273437 1.54367187 -13.26171875 1.30859375 C-12.08222656 1.02113281 -10.90273438 0.73367188 -9.6875 0.4375 C-8.51574219 0.14746094 -7.34398437 -0.14257812 -6.13671875 -0.44140625 C-3 -1 -3 -1 0 0 Z " fill="#278550" transform="translate(348,481)"/>
<path d="M0 0 C0.7425 0.185625 1.485 0.37125 2.25 0.5625 C4.94990963 0.99203108 6.44631077 0.85122974 9 0 C9 2 9 4 9 6 C10.3921875 6.0928125 10.3921875 6.0928125 11.8125 6.1875 C15 7 15 7 16.875 9.5625 C17.431875 10.7690625 17.431875 10.7690625 18 12 C13.83740241 10.5199653 10.41490692 8.4553071 6.75 6 C5.69296875 5.29875 4.6359375 4.5975 3.546875 3.875 C1 2 1 2 0 0 Z " fill="#2D8051" transform="translate(103,452)"/>
<path d="M0 0 C1.46604374 2.93208747 0.77925574 4.88297702 0 8 C-0.99 8.66 -1.98 9.32 -3 10 C-3.34153937 11.66500443 -3.67449498 13.33178677 -4 15 C-5.5 16.625 -5.5 16.625 -7 18 C-7.33 18.99 -7.66 19.98 -8 21 C-8.66 21 -9.32 21 -10 21 C-8.51991304 15.99886406 -6.3681664 11.67084403 -3.875 7.125 C-3.50246094 6.43664062 -3.12992188 5.74828125 -2.74609375 5.0390625 C-1.83500474 3.35705202 -0.91809685 1.67819564 0 0 Z " fill="#2D8452" transform="translate(31,128)"/>
<path d="M0 0 C3 1 3 1 5 2 C5 3.32 5 4.64 5 6 C5.66 6 6.32 6 7 6 C7.33 6.66 7.66 7.32 8 8 C8.99 8.33 9.98 8.66 11 9 C12.30480865 12.26202163 13.21066812 15.57956185 14 19 C8.37529046 13.90260698 2.41527481 7.24582444 0 0 Z " fill="#2C8050" transform="translate(416,115)"/>
<path d="M0 0 C2.83556803 2.83556803 3.77445029 6.30375868 5.125 10 C5.54072266 11.10601562 5.54072266 11.10601562 5.96484375 12.234375 C8 17.72829433 8 17.72829433 8 20 C7.34 20 6.68 20 6 20 C5.34 17.03 4.68 14.06 4 11 C3.01 11 2.02 11 1 11 C-0.98362069 8.08291076 -0.9876191 6.87619096 -0.625 3.25 C-0.41875 2.1775 -0.2125 1.105 0 0 Z " fill="#278451" transform="translate(187,117)"/>
<path d="M0 0 C0.66 0 1.32 0 2 0 C1.354523 7.90709331 -0.86997139 15.39133967 -3 23 C-4.05078125 21.17578125 -4.05078125 21.17578125 -5 19 C-4.1875 16.1875 -4.1875 16.1875 -3 13 C-2.62468554 10.67305036 -2.28082798 8.34023315 -2 6 C-1.34 6 -0.68 6 0 6 C-0.185625 5.38125 -0.37125 4.7625 -0.5625 4.125 C-1 2 -1 2 0 0 Z " fill="#298552" transform="translate(493,300)"/>
<path d="M0 0 C2.67922713 3.28447423 4.45401627 6.73077743 6.25 10.5625 C6.79140625 11.69816406 7.3328125 12.83382812 7.890625 14.00390625 C9 17 9 17 8 20 C-0.625 6.875 -0.625 6.875 0 0 Z " fill="#2B8451" transform="translate(473,137)"/>
<path d="M0 0 C1.64861525 2.47292287 2.66488584 4.43579111 3.7265625 7.16015625 C4.0359375 7.95357422 4.3453125 8.74699219 4.6640625 9.56445312 C4.98117188 10.38880859 5.29828125 11.21316406 5.625 12.0625 C5.94984375 12.89072266 6.2746875 13.71894531 6.609375 14.57226562 C9 20.74469866 9 20.74469866 9 23 C8.34 23 7.68 23 7 23 C7 21.68 7 20.36 7 19 C6.34 19 5.68 19 5 19 C4.34 15.7 3.68 12.4 3 9 C1.35 8.67 -0.3 8.34 -2 8 C-1.67 7.4225 -1.34 6.845 -1 6.25 C0.27075898 3.80116138 0.27075898 3.80116138 0 0 Z " fill="#2B824F" transform="translate(178,93)"/>
<path d="M0 0 C1.58323688 -0.027193 3.16661062 -0.04648306 4.75 -0.0625 C6.07257813 -0.07990234 6.07257813 -0.07990234 7.421875 -0.09765625 C9.8106119 -0.00717379 11.75245874 0.19513725 14 1 C14.33 1.66 14.66 2.32 15 3 C16.85240164 3.83047008 16.85240164 3.83047008 19 4.5 C21.1875 5.21875 21.1875 5.21875 23 6 C23.33 6.66 23.66 7.32 24 8 C23.44054687 7.82984375 22.88109375 7.6596875 22.3046875 7.484375 C14.89214065 5.24392676 7.44931312 3.11457447 0 1 C0 0.67 0 0.34 0 0 Z " fill="#2B8453" transform="translate(304,43)"/>
<path d="M0 0 C-4.21434291 2.19340221 -8.56995679 3.67095444 -13.0625 5.1875 C-13.87783203 5.47302734 -14.69316406 5.75855469 -15.53320312 6.05273438 C-16.31759766 6.31763672 -17.10199219 6.58253906 -17.91015625 6.85546875 C-18.97955444 7.22128052 -18.97955444 7.22128052 -20.07055664 7.59448242 C-22 8 -22 8 -25 7 C-23.35 6.67 -21.7 6.34 -20 6 C-20 5.34 -20 4.68 -20 4 C-18.5459375 3.5359375 -18.5459375 3.5359375 -17.0625 3.0625 C-14.15934208 2.30476658 -14.15934208 2.30476658 -13 1 C-8.62512908 0.34376936 -4.43069564 -0.13845924 0 0 Z " fill="#2D8251" transform="translate(196,43)"/>
<path d="M0 0 C1.98783997 3.64056516 1.96938307 4.94621623 1 9 C0.61146104 12.3281429 0.30452272 15.66320853 0 19 C0.66 19.33 1.32 19.66 2 20 C0.02 20.99 0.02 20.99 -2 22 C-2.25515919 14.47280398 -1.28297723 7.41148455 0 0 Z " fill="#2D8452" transform="translate(3,206)"/>
<path d="M0 0 C1.04478472 3.39555034 1.30152754 6.45705143 1 10 C-0.375 11.5625 -0.375 11.5625 -2 13 C-3.19027984 15.59915538 -3.19027984 15.59915538 -4 18 C-5.5411298 14.04963563 -4.39859394 11.23429099 -3.125 7.3125 C-2.75632812 6.15363281 -2.38765625 4.99476563 -2.0078125 3.80078125 C-1 1 -1 1 0 0 Z " fill="#278651" transform="translate(12,173)"/>
<path d="M0 0 C0.68359375 1.703125 0.68359375 1.703125 1 4 C-0.21484375 6.359375 -0.21484375 6.359375 -1.9375 8.75 C-2.50339844 9.54921875 -3.06929688 10.3484375 -3.65234375 11.171875 C-4.09707031 11.77515625 -4.54179688 12.3784375 -5 13 C-5.99 12.34 -6.98 11.68 -8 11 C-8 10.34 -8 9.68 -8 9 C-7.01 9 -6.02 9 -5 9 C-4.67 6.69 -4.34 4.38 -4 2 C-3.01 2 -2.02 2 -1 2 C-0.67 1.34 -0.34 0.68 0 0 Z " fill="#23854C" transform="translate(73,126)"/>
<path d="M0 0 C2.34914492 2.34914492 2.73140357 3.95679446 3.625 7.125 C3.88539063 8.03507813 4.14578125 8.94515625 4.4140625 9.8828125 C4.70410156 10.93082031 4.70410156 10.93082031 5 12 C2.3796346 10.62086032 0.37781023 9.49279595 -1.4375 7.125 C-2.21066007 4.20417308 -1.32095152 2.64190304 0 0 Z " fill="#26864F" transform="translate(195,138)"/>
<path d="M0 0 C2.93200474 2.85276137 5.64315404 5.65079784 8 9 C7.67 9.66 7.34 10.32 7 11 C4.5625 10.625 4.5625 10.625 2 10 C0.76276024 7.52552048 1 5.7446651 1 3 C0.67 2.01 0.34 1.02 0 0 Z " fill="#28854E" transform="translate(449,99)"/>
<path d="M0 0 C4.86548808 0.65934184 9.25907636 1.96571246 13.875 3.5625 C14.90753906 3.91344727 14.90753906 3.91344727 15.9609375 4.27148438 C17.64203645 4.84352499 19.32122163 5.42118456 21 6 C21 6.33 21 6.66 21 7 C16.0963329 6.52849355 11.36792093 5.72157754 6.5625 4.625 C5.53253906 4.39039063 4.50257813 4.15578125 3.44140625 3.9140625 C2.63574219 3.61242187 1.83007812 3.31078125 1 3 C0.67 2.01 0.34 1.02 0 0 Z " fill="#2D8152" transform="translate(171,449)"/>
<path d="M0 0 C0.33 0.66 0.66 1.32 1 2 C3.75705369 2.93116296 6.43439763 3.17171988 9.328125 3.31640625 C10.52695312 3.37924805 10.52695312 3.37924805 11.75 3.44335938 C12.9875 3.50233398 12.9875 3.50233398 14.25 3.5625 C15.09046875 3.60568359 15.9309375 3.64886719 16.796875 3.69335938 C18.86440671 3.79908543 20.93218281 3.90001295 23 4 C23 4.33 23 4.66 23 5 C15.41 5 7.82 5 0 5 C0 3.35 0 1.7 0 0 Z " fill="#2D8C56" transform="translate(354,408)"/>
<path d="M0 0 C0.66666667 2.66666667 1.33333333 5.33333333 2 8 C1.01 8.33 0.02 8.66 -1 9 C-1.71727778 10.64551962 -2.38325228 12.31422289 -3 14 C-3.66 14.66 -4.32 15.32 -5 16 C-4.39363767 10.23955788 -2.24341721 5.27985631 0 0 Z " fill="#2B7D4D" transform="translate(291,157)"/>
<path d="M0 0 C0.33 0.66 0.66 1.32 1 2 C0.10333658 4.24310013 -0.89146683 6.44754321 -1.9375 8.625 C-2.50339844 9.81351563 -3.06929687 11.00203125 -3.65234375 12.2265625 C-4.09707031 13.14179688 -4.54179688 14.05703125 -5 15 C-5.33 15 -5.66 15 -6 15 C-6.33 12.69 -6.66 10.38 -7 8 C-6.01 8.33 -5.02 8.66 -4 9 C-4 7.35 -4 5.7 -4 4 C-3.34 4 -2.68 4 -2 4 C-2 3.01 -2 2.02 -2 1 C-1.34 0.67 -0.68 0.34 0 0 Z " fill="#2A8250" transform="translate(57,156)"/>
<path d="M0 0 C3.38230805 1.69115403 3.94308424 5.54976109 5.1875 8.9375 C5.47302734 9.67935547 5.75855469 10.42121094 6.05273438 11.18554688 C6.76641653 13.10085447 7.38998419 15.0491986 8 17 C7.67 17.66 7.34 18.32 7 19 C0 5.72413793 0 5.72413793 0 0 Z " fill="#2A7E50" transform="translate(200,152)"/>
<path d="M0 0 C-0.99 0 -1.98 0 -3 0 C-3.33 0.99 -3.66 1.98 -4 3 C-5.95803507 3.05389087 -7.91648909 3.09274217 -9.875 3.125 C-10.96554688 3.14820313 -12.05609375 3.17140625 -13.1796875 3.1953125 C-16 3 -16 3 -18 1 C-15.75152519 0.63627613 -13.50113812 0.28435904 -11.25 -0.0625 C-9.99703125 -0.25972656 -8.7440625 -0.45695313 -7.453125 -0.66015625 C-4.49983411 -0.95080818 -2.7397586 -0.98935727 0 0 Z " fill="#2E8451" transform="translate(224,2)"/>
<path d="M0 0 C2 1 2 1 3 3 C0.74259377 5.33524782 -1.2805761 7.18705073 -4 9 C-4.99 8.67 -5.98 8.34 -7 8 C-4.69 5.36 -2.38 2.72 0 0 Z " fill="#278750" transform="translate(63,83)"/>
<path d="M0 0 C1.1055189 0.93590504 2.20935453 1.87379858 3.3125 2.8125 C3.92738281 3.33457031 4.54226563 3.85664062 5.17578125 4.39453125 C6.85424679 5.87172469 8.43882034 7.40039131 10 9 C9.67 9.66 9.34 10.32 9 11 C8.34 10.67 7.68 10.34 7 10 C7 9.34 7 8.68 7 8 C6.01 8.33 5.02 8.66 4 9 C1.3144406 6.3144406 0.93950026 3.62378672 0 0 Z " fill="#2B8052" transform="translate(423,69)"/>
<path d="M0 0 C1.98 0 3.96 0 6 0 C2.9377256 2.48627517 -0.1457054 4.09989404 -3.75 5.6875 C-4.73484375 6.12449219 -5.7196875 6.56148438 -6.734375 7.01171875 C-7.48203125 7.33785156 -8.2296875 7.66398437 -9 8 C-9 7.01 -9 6.02 -9 5 C-7.68 5 -6.36 5 -5 5 C-5 4.34 -5 3.68 -5 3 C-4.360625 2.87625 -3.72125 2.7525 -3.0625 2.625 C-2.0415625 2.315625 -2.0415625 2.315625 -1 2 C-0.67 1.34 -0.34 0.68 0 0 Z " fill="#2C8251" transform="translate(363,470)"/>
<path d="M0 0 C-1.66751148 3.94139078 -4.22710649 6.7892812 -7 10 C-7.66 8.68 -8.32 7.36 -9 6 C-8.34 5.34 -7.68 4.68 -7 4 C-6.360625 3.29875 -5.72125 2.5975 -5.0625 1.875 C-3 0 -3 0 0 0 Z " fill="#278450" transform="translate(450,400)"/>
<path d="M0 0 C5.01202555 2.98334854 8.38748484 6.43951988 12 11 C9.0625 10.1875 9.0625 10.1875 6 9 C5.67 8.01 5.34 7.02 5 6 C4.01 6 3.02 6 2 6 C1.34 4.02 0.68 2.04 0 0 Z " fill="#28844E" transform="translate(410,58)"/>
<path d="M0 0 C-2.43319829 2.94545056 -4.32413607 3.32286717 -8 4 C-8.33 4.66 -8.66 5.32 -9 6 C-10.32 5.01 -11.64 4.02 -13 3 C-11.21189234 2.30329584 -9.41937948 1.61788811 -7.625 0.9375 C-6.62726563 0.55464844 -5.62953125 0.17179687 -4.6015625 -0.22265625 C-2 -1 -2 -1 0 0 Z " fill="#28854F" transform="translate(331,449)"/>
<path d="M0 0 C3.86301917 1.46528313 5.04580842 3.44692439 7 7 C7.66 7.66 8.32 8.32 9 9 C9.70710678 10.64991582 10.37943989 12.31562256 11 14 C7.11807874 10.23225289 3.20468119 6.37202211 0 2 C0 1.34 0 0.68 0 0 Z " fill="#2E8051" transform="translate(47,396)"/>
<path d="M0 0 C0.66 0 1.32 0 2 0 C2.66 0.99 3.32 1.98 4 3 C7.05429073 4.21284876 7.05429073 4.21284876 10 5 C10 5.66 10 6.32 10 7 C5.61110675 6.33501617 2.0188515 4.81242323 -2 3 C-1.34 2.01 -0.68 1.02 0 0 Z " fill="#288451" transform="translate(333,50)"/>
<path d="M0 0 C5.94 0 11.88 0 18 0 C18 0.33 18 0.66 18 1 C9.09 1.99 9.09 1.99 0 3 C0 2.01 0 1.02 0 0 Z " fill="#328155" transform="translate(276,496)"/>
<path d="M0 0 C1.60785777 0.59427388 3.21117709 1.20083588 4.8125 1.8125 C6.15248047 2.31716797 6.15248047 2.31716797 7.51953125 2.83203125 C9.91924072 3.96197319 11.28423353 5.01062293 13 7 C12.01 7.495 12.01 7.495 11 8 C8.3984375 6.78515625 8.3984375 6.78515625 5.375 5.0625 C4.37210938 4.49660156 3.36921875 3.93070312 2.3359375 3.34765625 C1.56507812 2.90292969 0.79421875 2.45820313 0 2 C0 1.34 0 0.68 0 0 Z " fill="#2D8352" transform="translate(124,465)"/>
<path d="M0 0 C-1.43011973 0.86646667 -2.86940619 1.71781829 -4.3125 2.5625 C-5.51326172 3.27599609 -5.51326172 3.27599609 -6.73828125 4.00390625 C-9 5 -9 5 -12 4 C-8.9291932 -0.6062102 -5.19521771 -1.5743084 0 0 Z " fill="#268550" transform="translate(381,464)"/>
<path d="M0 0 C0.66 0.33 1.32 0.66 2 1 C1.3125 3.375 1.3125 3.375 0 6 C-2.625 7.3125 -2.625 7.3125 -5 8 C-5.66 7.34 -6.32 6.68 -7 6 C-4.69 4.02 -2.38 2.04 0 0 Z " fill="#24824B" transform="translate(383,416)"/>
<path d="M0 0 C0.66 0.33 1.32 0.66 2 1 C-1.96 3.97 -5.92 6.94 -10 10 C-10.33 9.01 -10.66 8.02 -11 7 C-9.54261898 6.01941648 -8.08406325 5.04057868 -6.625 4.0625 C-5.81289062 3.51722656 -5.00078125 2.97195312 -4.1640625 2.41015625 C-2 1 -2 1 0 0 Z " fill="#2E7F52" transform="translate(129,72)"/>
<path d="M0 0 C3.57011026 3.732388 4.10913442 8.0949989 5 13 C4.01 12.67 3.02 12.34 2 12 C0.19204568 7.9083139 -0.21156222 4.44280672 0 0 Z " fill="#288851" transform="translate(451,173)"/>
<path d="M0 0 C0.33 0.66 0.66 1.32 1 2 C0.36328125 3.91015625 0.36328125 3.91015625 -0.6875 6.0625 C-1.18830078 7.13177734 -1.18830078 7.13177734 -1.69921875 8.22265625 C-3 10 -3 10 -5.14453125 10.74609375 C-6.06298828 10.87177734 -6.06298828 10.87177734 -7 11 C-5.22054913 6.95579349 -2.60470327 3.53921513 0 0 Z " fill="#2B8252" transform="translate(55,92)"/>
<path d="M0 0 C1.5 1.375 1.5 1.375 3 3 C3 3.66 3 4.32 3 5 C3.66 5.33 4.32 5.66 5 6 C5.33 6.99 5.66 7.98 6 9 C1.7257442 7.4169423 -0.26531794 4.49431596 -3 1 C-2.01 0.67 -1.02 0.34 0 0 Z " fill="#278650" transform="translate(83,432)"/>
<path d="M0 0 C2.12161334 2.12161334 2.92986249 3.7733159 4.125 6.5 C4.47820313 7.2940625 4.83140625 8.088125 5.1953125 8.90625 C6 11 6 11 6 13 C3 12 3 12 2.05078125 10.29296875 C1.80714844 9.59816406 1.56351563 8.90335937 1.3125 8.1875 C0.93544922 7.15689453 0.93544922 7.15689453 0.55078125 6.10546875 C0 4 0 4 0 0 Z " fill="#298250" transform="translate(51,329)"/>
<path d="M0 0 C0.66 0 1.32 0 2 0 C1.71640113 1.4391134 1.42278601 2.87625518 1.125 4.3125 C0.88136719 5.51326172 0.88136719 5.51326172 0.6328125 6.73828125 C0 9 0 9 -2 12 C-2 8.7 -2 5.4 -2 2 C-1.34 2 -0.68 2 0 2 C0 1.34 0 0.68 0 0 Z " fill="#27834F" transform="translate(301,315)"/>
<path d="M0 0 C0.99 0.33 1.98 0.66 3 1 C4.8066225 4.76379687 3.59379272 9.04138185 3 13 C1.32889958 10.03821227 0.67317248 7.62928808 0.375 4.25 C0.30023438 3.45078125 0.22546875 2.6515625 0.1484375 1.828125 C0.09945313 1.22484375 0.05046875 0.6215625 0 0 Z " fill="#2D8250" transform="translate(3,291)"/>
<path d="M0 0 C0.33 0 0.66 0 1 0 C1.0272415 1.41655793 1.04650467 2.83327045 1.0625 4.25 C1.07410156 5.03890625 1.08570313 5.8278125 1.09765625 6.640625 C1.00385306 8.90691002 0.63241063 10.8288895 0 13 C-0.66 12.67 -1.32 12.34 -2 12 C-2.05422947 10.5629191 -2.09289723 9.12524538 -2.125 7.6875 C-2.14820313 6.88699219 -2.17140625 6.08648437 -2.1953125 5.26171875 C-2 3 -2 3 0 0 Z " fill="#2A8753" transform="translate(141,393)"/>
<path d="M0 0 C1.87184371 3.74368742 2.23999767 4.8400791 2.125 8.75 C2.10695313 9.54921875 2.08890625 10.3484375 2.0703125 11.171875 C2.04710938 11.77515625 2.02390625 12.3784375 2 13 C1.01 12.67 0.02 12.34 -1 12 C-0.67 8.04 -0.34 4.08 0 0 Z " fill="#2E8553" transform="translate(91,114)"/>
<path d="M0 0 C3.62528568 -0.20140476 5.86501708 0.14223235 9 2 C9 2.66 9 3.32 9 4 C7.3125 4.8125 7.3125 4.8125 5 5 C2.25 2.5625 2.25 2.5625 0 0 Z " fill="#268752" transform="translate(372,74)"/>
<path d="M0 0 C1.32 0.33 2.64 0.66 4 1 C1.36 2.98 -1.28 4.96 -4 7 C-4 4 -4 4 -2.25 1.75 C-1.5075 1.1725 -0.765 0.595 0 0 Z " fill="#2A8150" transform="translate(405,443)"/>
<path d="M0 0 C-0.66 1.32 -1.32 2.64 -2 4 C-2 3.01 -2 2.02 -2 1 C-4.97 1 -7.94 1 -11 1 C-11 0.67 -11 0.34 -11 0 C-6.53464227 -1.86921951 -4.33629181 -2.2956839 0 0 Z " fill="#2B8C53" transform="translate(389,412)"/>
<path d="M0 0 C1.15957207 3.47871621 0.77456651 4.34219645 -0.4375 7.6875 C-0.72496094 8.49574219 -1.01242187 9.30398438 -1.30859375 10.13671875 C-1.53675781 10.75160156 -1.76492188 11.36648438 -2 12 C-2.99 12 -3.98 12 -5 12 C-3.41037341 7.96479403 -1.71767682 3.98188718 0 0 Z " fill="#28874F" transform="translate(286,361)"/>
<path d="M0 0 C0.66 0.33 1.32 0.66 2 1 C0.84414715 4.91211733 -0.35534962 7.8745041 -3 11 C-4 8 -4 8 -4 5 C-2.68 4.67 -1.36 4.34 0 4 C0 2.68 0 1.36 0 0 Z " fill="#2B8151" transform="translate(61,145)"/>
<path d="M0 0 C3.16115776 1.36983503 3.9927092 1.9890638 6 5 C6.125 7.6875 6.125 7.6875 6 10 C3.38275905 7.63202009 1.67138271 5.10399646 0 2 C0 1.34 0 0.68 0 0 Z " fill="#2D8052" transform="translate(430,134)"/>
<path d="M0 0 C2.50298434 2.93828597 3.46930939 5.17902761 4 9 C3.01 8.67 2.02 8.34 1 8 C-0.1875 4.4375 -0.1875 4.4375 -1 1 C-0.67 0.67 -0.34 0.34 0 0 Z " fill="#27854F" transform="translate(61,350)"/>
<path d="M0 0 C0.33 0 0.66 0 1 0 C0.25 7.625 0.25 7.625 -2 11 C-2.93750716 7.33519927 -3.28668844 5.59943946 -1.625 2.125 C-1.08875 1.42375 -0.5525 0.7225 0 0 Z " fill="#2C824F" transform="translate(277,385)"/>
<path d="M0 0 C0.66 0 1.32 0 2 0 C2 3.96 2 7.92 2 12 C0.34310164 8.68620328 -0.54152804 6.57608127 -1 3 C-0.67 2.01 -0.34 1.02 0 0 Z " fill="#308352" transform="translate(141,377)"/>
<path d="M0 0 C3.98175544 2.10148204 6.35039045 4.36905358 9 8 C8.67 8.66 8.34 9.32 8 10 C6.99403703 9.0479279 5.99538437 8.08812654 5 7.125 C4.443125 6.59132813 3.88625 6.05765625 3.3125 5.5078125 C2 4 2 4 2 2 C1.34 2 0.68 2 0 2 C0 1.34 0 0.68 0 0 Z " fill="#308552" transform="translate(401,98)"/>
<path d="M0 0 C0.33 0 0.66 0 1 0 C1 1.65 1 3.3 1 5 C-0.65 5.33 -2.3 5.66 -4 6 C-2.84826645 3.53199953 -1.95216435 1.95216435 0 0 Z " fill="#2C854F" transform="translate(270,405)"/>
<path d="M0 0 C2.31 1.98 4.62 3.96 7 6 C6.67 6.66 6.34 7.32 6 8 C2.83884224 6.63016497 2.0072908 6.0109362 0 3 C0 2.01 0 1.02 0 0 Z " fill="#288451" transform="translate(434,81)"/>
<path d="M0 0 C1.65 0.33 3.3 0.66 5 1 C2.64722731 3.72426311 0.37503669 4.8141763 -3 6 C-2 4 -1 2 0 0 Z " fill="#2C8152" transform="translate(152,56)"/>
<path d="M0 0 C7.57142857 4.14285714 7.57142857 4.14285714 10 7 C6.83976631 6.29772585 3.88719595 5.48261414 1 4 C0.1875 1.875 0.1875 1.875 0 0 Z " fill="#297E4D" transform="translate(389,42)"/>
<path d="M0 0 C1.98 0.66 3.96 1.32 6 2 C6 3.65 6 5.3 6 7 C3.95880212 5.38405168 1.95927063 3.7143618 0 2 C0 1.34 0 0.68 0 0 Z " fill="#2B824F" transform="translate(58,410)"/>
<path d="M0 0 C2.97 0.495 2.97 0.495 6 1 C6 1.66 6 2.32 6 3 C6.66 3 7.32 3 8 3 C7.67 3.66 7.34 4.32 7 5 C4.0625 4.1875 4.0625 4.1875 1 3 C0.67 2.01 0.34 1.02 0 0 Z " fill="#25894F" transform="translate(44,392)"/>
<path d="M0 0 C1.39195915 4.17587745 -0.17676781 6.13474776 -2 10 C-2.66 9.67 -3.32 9.34 -4 9 C-2.80100302 5.9168649 -1.52299523 2.93720508 0 0 Z " fill="#2A8350" transform="translate(293,341)"/>
<path d="M0 0 C0.7425 0.185625 1.485 0.37125 2.25 0.5625 C4.94990963 0.99203108 6.44631077 0.85122974 9 0 C8.34 1.32 7.68 2.64 7 4 C4.97954558 3.39816251 2.97888961 2.72693904 1 2 C0.67 1.34 0.34 0.68 0 0 Z " fill="#27874D" transform="translate(103,452)"/>
<path d="M0 0 C2.475 0.495 2.475 0.495 5 1 C3.35 2.65 1.7 4.3 0 6 C0 4.02 0 2.04 0 0 Z " fill="#2C8250" transform="translate(412,435)"/>
<path d="M0 0 C0.96661363 3.12180401 0.98988909 5.52083795 0.5625 8.75 C0.40974609 9.94882813 0.40974609 9.94882813 0.25390625 11.171875 C0.12822266 12.07679688 0.12822266 12.07679688 0 13 C-0.33 13 -0.66 13 -1 13 C-1.22151549 11.20991533 -1.42682213 9.41781838 -1.625 7.625 C-1.74101562 6.62726563 -1.85703125 5.62953125 -1.9765625 4.6015625 C-1.98429688 3.74304688 -1.99203125 2.88453125 -2 2 C-1.34 1.34 -0.68 0.68 0 0 Z " fill="#29814F" transform="translate(154,234)"/>
</svg>
